<?xml version="1.0" standalone="no"?><!DOCTYPE svg PUBLIC "-//W3C//DTD SVG 1.1//EN" "http://www.w3.org/Graphics/SVG/1.1/DTD/svg11.dtd"><svg class="icon" width="200px" height="200.00px" viewBox="0 0 1024 1024" version="1.1" xmlns="http://www.w3.org/2000/svg"><path d="M513.82 648.54c-26.6 0-53.19-5.65-75.39-16.95l-0.29-0.15C342 581.03 231.1 499.68 162.19 429l-0.28-0.29c-17.11-18.07-26.53-41.17-26.53-65.04 0-23.87 9.42-46.97 26.53-65.04l0.28-0.29C231.1 227.66 341.99 146.3 438.14 95.9l0.29-0.15c44.39-22.6 106.39-22.6 150.78 0l0.29 0.15c96.15 50.41 207.04 131.76 275.95 202.44l0.28 0.29c17.11 18.07 26.53 41.17 26.53 65.04s-9.42 46.97-26.53 65.04l-0.28 0.29c-68.91 70.68-179.8 152.04-275.95 202.44l-0.29 0.15c-22.19 11.3-48.8 16.95-75.39 16.95z m-50.31-65.9c28.71 14.55 71.9 14.55 100.61 0 91.4-47.95 196.55-125.02 261.78-191.88 15.02-15.98 15.02-38.22 0-54.2-65.23-66.86-170.39-143.94-261.79-191.88-28.71-14.54-71.88-14.54-100.59 0-91.41 47.95-196.56 125.02-261.79 191.88-15.01 15.98-15.01 38.22 0 54.2 65.23 66.86 170.38 143.94 261.78 191.88z" fill="#64A0CF" /><path d="M513.82 798.09c-26.59 0-53.17-5.81-76.37-17.42l-0.74-0.39c-47.79-25.78-103.64-62.98-153.23-102.06-33.08-25.81-61.35-50.89-86.29-73.02-10.65-9.45-20.71-18.38-30.71-26.99-19.43-16.76-30.73-40.34-31-64.7l55-0.6c0.09 8.58 4.44 17.2 11.91 23.65 10.29 8.87 20.49 17.92 31.3 27.51 25.53 22.65 51.93 46.08 83.67 70.83l0.11 0.08c46.4 36.57 100.57 72.69 144.97 96.68 30.79 15.26 71.98 15.26 102.77 0 44.41-24 98.57-60.12 144.97-96.68l0.11-0.08c31.73-24.75 58.13-48.18 83.66-70.83 10.8-9.59 21.01-18.64 31.3-27.51 7.84-6.76 12.17-15.72 11.88-24.56l54.97-1.81c0.84 25.55-10.43 50.34-30.93 68.02-10 8.62-20.07 17.55-30.72 27-24.94 22.13-53.2 47.2-86.28 73.01-49.6 39.08-105.45 76.28-153.24 102.06l-0.74 0.39c-23.2 11.62-49.78 17.42-76.37 17.42z" fill="#9EEFD9" /><path d="M513.82 939.13c-26.59 0-53.17-5.81-76.37-17.42l-0.74-0.39c-47.79-25.78-103.64-62.98-153.23-102.06-33.08-25.81-61.35-50.89-86.29-73.02-10.65-9.45-20.71-18.38-30.71-26.99-19.43-16.76-30.73-40.34-31-64.7l55-0.6c0.09 8.58 4.44 17.2 11.91 23.65 10.29 8.87 20.49 17.92 31.3 27.51 25.53 22.65 51.93 46.08 83.67 70.83l0.11 0.08c46.41 36.57 100.57 72.69 144.97 96.69 30.79 15.26 71.98 15.26 102.77 0 44.41-24 98.57-60.12 144.97-96.68l0.11-0.08c31.73-24.75 58.13-48.18 83.66-70.83 10.8-9.59 21.01-18.64 31.3-27.51 7.84-6.76 12.17-15.72 11.88-24.56l54.97-1.81c0.84 25.55-10.43 50.34-30.93 68.02-10 8.62-20.07 17.55-30.72 27-24.94 22.13-53.2 47.2-86.28 73.01-49.6 39.08-105.45 76.28-153.24 102.06l-0.74 0.39c-23.19 11.6-49.79 17.41-76.37 17.41z" fill="#64A0CF" /></svg>