<?xml version="1.0" standalone="no"?><!DOCTYPE svg PUBLIC "-//W3C//DTD SVG 1.1//EN" "http://www.w3.org/Graphics/SVG/1.1/DTD/svg11.dtd"><svg class="icon" width="200px" height="200.00px" viewBox="0 0 1024 1024" version="1.1" xmlns="http://www.w3.org/2000/svg"><path d="M487.25 791.64c-49.45 0-97.44-9.69-142.63-28.8-43.63-18.46-82.81-44.87-116.46-78.51-33.64-33.64-60.05-72.82-78.51-116.46-19.11-45.19-28.8-93.17-28.8-142.63s9.69-97.44 28.8-142.63c18.46-43.63 44.87-82.81 78.51-116.46 33.64-33.64 72.82-60.05 116.46-78.51 45.19-19.11 93.17-28.8 142.63-28.8s97.44 9.69 142.63 28.8c43.63 18.46 82.81 44.87 116.45 78.51 33.64 33.64 60.06 72.82 78.51 116.46 19.11 45.19 28.8 93.17 28.8 142.63s-9.69 97.44-28.8 142.63c-18.46 43.63-44.87 82.81-78.51 116.46-33.64 33.64-72.82 60.05-116.45 78.51-45.2 19.11-93.18 28.8-142.63 28.8z m0-677.79c-171.7 0-311.4 139.69-311.4 311.4s139.69 311.4 311.4 311.4 311.4-139.69 311.4-311.4-139.7-311.4-311.4-311.4z" fill="#64A0CF" /><path d="M859.2 933c-12.79 9.53-30.89 6.88-40.41-5.91L680.78 741.8c-9.53-12.79-6.88-30.89 5.91-40.41 12.79-9.53 30.89-6.88 40.41 5.91l138.01 185.3c9.53 12.78 6.88 30.88-5.91 40.4z" fill="#64A0CF" /><path d="M611.87 298.02c-73.33-56.23-175.93-56.23-249.26 0-11.54 8.77-27.62 10.25-37.04 1.27l-4.66-4.66c-9.4-8.92-5.98-27.66 9.12-39.22 92.5-70.93 221.93-70.93 314.43 0 15.1 11.56 18.53 30.3 9.12 39.22l-4.66 4.66c-9.42 8.99-25.5 7.5-37.05-1.27z" fill="#9EEFD9" /></svg>