<?xml version="1.0" standalone="no"?><!DOCTYPE svg PUBLIC "-//W3C//DTD SVG 1.1//EN" "http://www.w3.org/Graphics/SVG/1.1/DTD/svg11.dtd"><svg class="icon" width="200px" height="200.00px" viewBox="0 0 1024 1024" version="1.1" xmlns="http://www.w3.org/2000/svg"><path d="M300.68 442.39c-3.83 6.63-2.48 15.16 3.43 20.02 16.26 13.36 25.62 33.62 24.64 54.77-1.1 23.72-14.8 39.66-24.85 48.24-5.81 4.96-7.23 13.37-3.4 19.99 14.98 25.94 29.96 51.89 44.94 77.83 3.69 6.4 11.29 9.38 18.36 7.26 11.72-3.5 30.69-6.25 50.41 3 19.4 9.1 33.33 26.91 38.26 47.91 1.71 7.28 8.05 12.53 15.53 12.53h90.63c7.37 0 13.71-5.07 15.46-12.22 3.23-13.19 11.73-33.87 33.96-46.14 21.09-11.63 41.98-8.77 54.51-5.07 7.1 2.09 14.72-0.84 18.42-7.25 15.06-26.08 30.12-52.16 45.17-78.24 3.72-6.44 2.59-14.66-2.88-19.7-9.72-8.97-23.14-25.74-23.51-50.23-0.38-25.36 13.48-42.88 23.46-52.18 5.45-5.07 6.77-13.17 3.05-19.62-15-25.98-30-51.97-45-77.95-3.74-6.48-11.48-9.71-18.61-7.43-19.68 6.29-41.29 3.74-58.78-7.48-19.56-12.55-27.07-31.54-29.95-43.98-1.66-7.16-7.95-12.3-15.3-12.3h-91.26c-7.15 0-13.41 4.77-15.32 11.66-3.48 12.6-12.18 32.33-33.67 44.61-21.22 12.12-42.37 9.81-54.9 6.55-6.93-1.8-14.2 1.22-17.78 7.43-15.01 26.01-30.02 52-45.02 77.99z" fill="#9EEFD9" /><path d="M635.64 964.15c-15.94 0-31.67-6.53-43.28-19-16.03-17.22-43.01-37.58-80.88-37.58-0.53 0-1.07 0-1.6 0.01-37.48 0.57-63.85 20.74-79.36 37.57-9.07 9.84-21.4 16.31-34.71 18.22-13.1 1.88-26.65-0.73-38.14-7.36l-154.48-89.19c-23.63-13.64-34.71-41.59-26.94-67.96 6.36-21.58 10.18-54.11-7.72-86.56-18.77-34.03-50.36-47.94-73.55-53.62-26.55-6.5-45.09-30.04-45.09-57.24V422.53c0-27.46 18.9-51.08 45.96-57.43 34.01-7.98 61.7-30.01 75.98-60.44 14.32-30.51 10.33-60.33 4.46-79.97-7.86-26.31 3.22-54.25 26.94-67.94l153.66-88.72c24.58-14.19 55.75-8.85 74.14 12.68 14.57 17.07 39.51 37.76 75.6 39.44 32.51 1.52 64.5-12.93 85.62-38.63 18.14-22.07 49.48-27.59 74.52-13.14l153.94 88.88c22.86 13.2 34.18 40.28 27.52 65.85-5.71 21.93-8.57 54.97 10.19 87.81 18.98 33.23 49.37 47.49 71.52 53.61 25.44 7.03 43.2 30.36 43.2 56.74v180.17c0 27.34-18.74 50.78-45.57 57-21.22 4.92-50.58 17.11-69.89 47.21-17.56 27.36-21.83 61.19-11.72 92.82 8.33 26.06-3.07 55.05-27.11 68.93l-153.9 88.85c-9.19 5.32-19.29 7.9-29.31 7.9zM511.48 852.58c60.68 0 101.85 34.4 121.13 55.09 1.34 1.44 3.34 1.83 4.86 0.96l153.9-88.85c1.74-1 2.71-3 2.22-4.55-15.12-47.31-8.63-98.07 17.82-139.28 29.3-45.65 72.59-63.85 103.75-71.07 1.76-0.41 2.99-1.82 2.99-3.42V421.28a3.83 3.83 0 0 0-2.85-3.73c-26.3-7.26-74.86-27.23-104.63-79.34-29.43-51.51-22.45-102.9-15.67-128.96 0.45-1.73-0.27-3.48-1.8-4.36l-153.94-88.88c-1.56-0.9-3.59-0.71-4.53 0.42-30.54 37.16-76.28 58.82-123.51 58.82-2.38 0-4.76-0.06-7.15-0.17-43.51-2.02-84.31-22.86-114.88-58.67-1.17-1.37-3.19-1.69-4.81-0.76l-153.66 88.72c-1.56 0.9-2.27 2.78-1.74 4.57 8.61 28.81 14.31 72.86-7.37 119.07-10.56 22.5-26.56 42.67-46.28 58.33-19.39 15.4-42.53 26.57-66.92 32.29-1.76 0.41-3.53 1.77-3.53 3.89v178.93c0 1.82 1.28 3.35 3.17 3.81 27.74 6.79 78.73 26.28 108.63 80.48 21.12 38.28 25.49 83.98 12.31 128.67-0.56 1.91 0.13 3.88 1.68 4.78l154.48 89.19c1.65 0.95 3.77 0.74 4.92-0.51 18.68-20.26 58.97-54.37 118.96-55.28 0.83 0 1.65-0.01 2.45-0.01z" fill="#64A0CF" /><path d="M511.25 515.05m-137.44 0a137.44 137.44 0 1 0 274.88 0 137.44 137.44 0 1 0-274.88 0Z" fill="#FFFFFF" /></svg>