<?xml version="1.0" standalone="no"?><!DOCTYPE svg PUBLIC "-//W3C//DTD SVG 1.1//EN" "http://www.w3.org/Graphics/SVG/1.1/DTD/svg11.dtd"><svg class="icon" width="200px" height="200.00px" viewBox="0 0 1024 1024" version="1.1" xmlns="http://www.w3.org/2000/svg"><path d="M271.32 922.17c-11.05 0-22.02-3.46-31.4-10.28-16.6-12.06-24.75-32.11-21.29-52.33l41.07-239.48-173.99-169.6c-14.69-14.32-19.88-35.34-13.54-54.85 6.34-19.51 22.89-33.47 43.19-36.42l240.45-34.94 107.53-217.89c9.08-18.4 27.47-29.83 47.98-29.83s38.9 11.43 47.98 29.83l107.53 217.89 240.45 34.94c20.3 2.95 36.85 16.9 43.19 36.42 6.34 19.51 1.15 40.53-13.54 54.85l-173.99 169.6 41.07 239.48c3.47 20.22-4.69 40.27-21.29 52.33-16.6 12.06-38.19 13.62-56.35 4.07L511.33 802.9 296.27 915.97c-7.9 4.15-16.45 6.2-24.95 6.2z m240.01-174.46c8.55 0 17.1 2.05 24.9 6.15l213.08 112.03-40.7-237.27A53.496 53.496 0 0 1 724 581.26l172.4-168.05-238.23-34.62a53.517 53.517 0 0 1-40.29-29.27L511.33 133.44 404.79 349.32a53.517 53.517 0 0 1-40.29 29.27l-238.24 34.62 172.39 168.04a53.496 53.496 0 0 1 15.39 47.36l-40.7 237.27 213.08-112.02c7.81-4.1 16.36-6.15 24.91-6.15z" fill="#64A0CF" /><path d="M660.67 564.37c-82.84 82.84-217.16 82.84-300 0v-55c82.84 82.84 217.16 82.84 300 0v55z" fill="#9EEFD9" /></svg>